<?xml version="1.0" encoding="UTF-8" standalone="no"?>
<!-- Created with Inkscape (http://www.inkscape.org/) -->

<svg
   xmlns:dc="http://purl.org/dc/elements/1.1/"
   xmlns:cc="http://creativecommons.org/ns#"
   xmlns:rdf="http://www.w3.org/1999/02/22-rdf-syntax-ns#"
   xmlns:svg="http://www.w3.org/2000/svg"
   xmlns="http://www.w3.org/2000/svg"
   xmlns:sodipodi="http://sodipodi.sourceforge.net/DTD/sodipodi-0.dtd"
   xmlns:inkscape="http://www.inkscape.org/namespaces/inkscape"
   width="210mm"
   height="297mm"
   viewBox="0 0 744.09448819 1052.3622047"
   id="svg2"
   version="1.1"
   inkscape:version="0.91 r13725"
   sodipodi:docname="Smth.svg">
  <defs
     id="defs4" />
  <sodipodi:namedview
     id="base"
     pagecolor="#ffffff"
     bordercolor="#666666"
     borderopacity="1.0"
     inkscape:pageopacity="0.0"
     inkscape:pageshadow="2"
     inkscape:zoom="0.49497475"
     inkscape:cx="297.89831"
     inkscape:cy="417.26087"
     inkscape:document-units="px"
     inkscape:current-layer="layer1"
     showgrid="false"
     inkscape:window-width="1366"
     inkscape:window-height="706"
     inkscape:window-x="-8"
     inkscape:window-y="-8"
     inkscape:window-maximized="1" />
  <metadata
     id="metadata7">
    <rdf:RDF>
      <cc:Work
         rdf:about="">
        <dc:format>image/svg+xml</dc:format>
        <dc:type
           rdf:resource="http://purl.org/dc/dcmitype/StillImage" />
        <dc:title></dc:title>
      </cc:Work>
    </rdf:RDF>
  </metadata>
  <g
     inkscape:label="Layer 1"
     inkscape:groupmode="layer"
     id="layer1">
    <path
       style="fill:none;fill-rule:evenodd;stroke:#000000;stroke-width:3;stroke-linecap:butt;stroke-linejoin:miter;stroke-miterlimit:4;stroke-dasharray:none;stroke-opacity:1"
       d="m 304.63026,491.75295 -30.75532,57.15198 59.63763,0 z"
       id="path4160"
       inkscape:connector-curvature="0"
       sodipodi:nodetypes="cccc" />
    <path
       sodipodi:nodetypes="cccc"
       inkscape:connector-curvature="0"
       id="path4162"
       d="m 304.63026,491.56874 -30.75532,-57.15198 59.63763,0 z"
       style="fill:none;fill-rule:evenodd;stroke:#000000;stroke-width:3;stroke-linecap:butt;stroke-linejoin:miter;stroke-miterlimit:4;stroke-dasharray:none;stroke-opacity:1" />
    <path
       sodipodi:nodetypes="cccc"
       inkscape:connector-curvature="0"
       id="path4164"
       d="m 305.3592,491.64532 57.15198,-30.75532 0,59.63763 z"
       style="fill:none;fill-rule:evenodd;stroke:#000000;stroke-width:3;stroke-linecap:butt;stroke-linejoin:miter;stroke-miterlimit:4;stroke-dasharray:none;stroke-opacity:1" />
    <path
       style="fill:none;fill-rule:evenodd;stroke:#000000;stroke-width:3;stroke-linecap:butt;stroke-linejoin:miter;stroke-miterlimit:4;stroke-dasharray:none;stroke-opacity:1"
       d="m 304.30114,491.65535 -57.15198,-30.75532 0,59.63763 z"
       id="path4166"
       inkscape:connector-curvature="0"
       sodipodi:nodetypes="cccc" />
    <path
       sodipodi:type="spiral"
       style="fill:none;fill-rule:evenodd;stroke:#000000;stroke-width:1px;stroke-linecap:butt;stroke-linejoin:miter;stroke-opacity:1"
       id="path4170"
       sodipodi:cx="-318.45728"
       sodipodi:cy="-698.79852"
       sodipodi:expansion="1"
       sodipodi:revolution="3"
       sodipodi:radius="112.14513"
       sodipodi:argument="-17.786734"
       sodipodi:t0="0"
       d="m -318.45728,-698.79852 c 2.73497,4.9128 -5.27302,6.11048 -8.16539,4.54569 -7.83816,-4.24048 -6.13129,-15.34085 -0.92599,-20.87649 9.31107,-9.90195 25.29057,-6.82214 33.58757,2.69372 12.17619,13.96492 7.57478,35.39019 -6.31342,46.29866 -18.51078,14.53928 -45.54498,8.3562 -59.00975,-9.93313 -16.94404,-23.01524 -9.15301,-55.72653 13.55284,-71.72083 27.49982,-19.37125 65.92326,-9.95884 84.43192,17.17254 21.81181,31.97339 10.77034,76.12947 -20.79224,97.14301 -36.44026,24.26096 -86.342,11.58563 -109.8541,-24.41195 -26.71594,-40.90273 -12.40356,-96.55897 28.03165,-122.56519 45.36219,-29.17505 106.77917,-13.22339 135.27628,31.65136 31.63719,49.81948 14.04466,117.0018 -35.27107,147.98736"
       transform="matrix(0,-1,1,0,1007.1629,388.85131)" />
    <path
       style="fill:none;fill-rule:evenodd;stroke:#000000;stroke-width:6;stroke-linecap:butt;stroke-linejoin:miter;stroke-miterlimit:4;stroke-dasharray:none;stroke-opacity:1"
       d="m 584.12079,781.72543 c 0,0 -82.97428,13.13198 -83.98443,-114.14724 -1.01015,-127.27922 6.01142,-6.06091 84.80332,-45.45686"
       id="path4194"
       inkscape:connector-curvature="0"
       sodipodi:nodetypes="csc" />
    <path
       sodipodi:nodetypes="csc"
       inkscape:connector-curvature="0"
       id="path4198"
       d="m 583.07129,781.72543 c 0,0 82.97428,13.13198 83.98443,-114.14724 1.01015,-127.27922 -6.07456,-6.06091 -84.86646,-45.45686"
       style="fill:none;fill-rule:evenodd;stroke:#000000;stroke-width:6;stroke-linecap:butt;stroke-linejoin:miter;stroke-miterlimit:4;stroke-dasharray:none;stroke-opacity:1" />
    <flowRoot
       xml:space="preserve"
       id="flowRoot4200"
       style="font-style:normal;font-weight:normal;font-size:40px;line-height:125%;font-family:sans-serif;letter-spacing:0px;word-spacing:0px;fill:#000000;fill-opacity:1;stroke:none;stroke-width:1px;stroke-linecap:butt;stroke-linejoin:miter;stroke-opacity:1"
       transform="matrix(2.1789312,0,0,2.1789312,-635.25118,-828.57355)"><flowRegion
         id="flowRegion4202"><rect
           id="rect4204"
           width="72.85714"
           height="74.285713"
           x="545.71429"
           y="672.36218" /></flowRegion><flowPara
         id="flowPara4206">B</flowPara></flowRoot>    <path
       sodipodi:nodetypes="csc"
       inkscape:connector-curvature="0"
       id="path4236"
       d="m 218.12079,1035.7254 c 0,0 -82.97428,13.132 -83.98443,-114.14721 -1.01015,-127.27922 6.01142,-6.06091 84.80332,-45.45686"
       style="fill:none;fill-rule:evenodd;stroke:#000000;stroke-width:6;stroke-linecap:butt;stroke-linejoin:miter;stroke-miterlimit:4;stroke-dasharray:none;stroke-opacity:1" />
    <path
       style="fill:none;fill-rule:evenodd;stroke:#000000;stroke-width:6;stroke-linecap:butt;stroke-linejoin:miter;stroke-miterlimit:4;stroke-dasharray:none;stroke-opacity:1"
       d="m 217.07129,1035.7254 c 0,0 82.97428,13.132 83.98443,-114.14721 1.01015,-127.27922 -6.07456,-6.06091 -84.86646,-45.45686"
       id="path4238"
       inkscape:connector-curvature="0"
       sodipodi:nodetypes="csc" />
    <flowRoot
       style="font-style:normal;font-weight:normal;font-size:87.15724945px;line-height:125%;font-family:sans-serif;letter-spacing:0px;word-spacing:0px;fill:#000000;fill-opacity:1;stroke:none;stroke-width:1px;stroke-linecap:butt;stroke-linejoin:miter;stroke-opacity:1"
       id="flowRoot4240"
       xml:space="preserve"
       transform="translate(-366,252)"><flowRegion
         id="flowRegion4242"><rect
           y="638.4574"
           x="553.82269"
           height="161.86346"
           width="158.7507"
           id="rect4244" /></flowRegion><flowPara
         id="flowPara4246">B</flowPara></flowRoot>    <path
       style="opacity:1;fill:none;stroke:#a93b00;stroke-width:3;stroke-linecap:butt;stroke-linejoin:miter;stroke-miterlimit:4;stroke-dasharray:none;stroke-dashoffset:0;stroke-opacity:1"
       d="m 560.43132,1030.3358 c -19.13934,-3.5125 -37.30199,-18.0364 -45.92767,-36.72649 -4.16864,-9.03262 -4.90095,-12.99942 -4.89503,-26.51564 0.005,-11.80355 0.0698,-12.33246 2.31415,-18.92857 3.19402,-9.38732 7.87439,-16.92705 15.10613,-24.33483 9.14212,-9.36466 19.63738,-15.50116 31.21704,-18.25236 5.956,-1.41508 20.91799,-1.58554 26.99725,-0.30757 14.84128,3.1199 30.83732,13.8599 39.41847,26.46619 2.9781,4.37505 7.09562,12.56872 8.85323,17.61755 2.8462,8.17586 3.03248,27.01215 0.353,35.69522 -4.12108,13.35472 -13.3888,26.3654 -24.39015,34.2406 -5.35982,3.8368 -14.96276,8.467 -20.66313,9.9631 -5.0078,1.3143 -23.31583,2.0127 -28.38329,1.0828 z"
       id="path4388"
       inkscape:connector-curvature="0" />
    <path
       style="opacity:1;fill:none;stroke:#a93b00;stroke-width:3;stroke-linecap:butt;stroke-linejoin:miter;stroke-miterlimit:4;stroke-dasharray:none;stroke-dashoffset:0;stroke-opacity:1"
       d="m 557.10888,1027.4727 c -12.38665,-3.3706 -22.74306,-10.1699 -32.01922,-21.0214 -4.1508,-4.8558 -10.19189,-15.8935 -11.9104,-21.7616 -1.45776,-4.97771 -2.22827,-21.18449 -1.31199,-27.59602 3.06692,-21.4604 22.69357,-42.90805 44.81982,-48.97829 7.2217,-1.98125 23.37439,-2.15546 30.34181,-0.32724 19.49231,5.11468 35.66115,19.90369 43.75371,40.01981 l 2.29881,5.71429 0.009,13.92857 c 0.008,11.81038 -0.19576,14.52601 -1.33996,17.85714 -3.45159,10.04865 -9.07344,18.81374 -17.18016,26.78574 -4.69263,4.6146 -7.32532,6.4994 -13.6807,9.7944 -10.30983,5.3452 -13.97002,6.2345 -27.43259,6.6659 -9.59092,0.3073 -11.77711,0.1627 -16.34859,-1.0813 l 3e-5,0 z"
       id="path4420"
       inkscape:connector-curvature="0" />
    <path
       style="opacity:1;fill:none;stroke:#a93b00;stroke-width:3;stroke-linecap:butt;stroke-linejoin:miter;stroke-miterlimit:4;stroke-dasharray:none;stroke-dashoffset:0;stroke-opacity:1"
       d="m 557.74319,1025.6521 c -4.93921,-1.3789 -13.23683,-5.275 -17.67439,-8.2988 -4.97309,-3.3888 -12.80036,-11.0973 -15.93855,-15.6968 -3.3745,-4.94585 -8.11666,-14.30533 -9.18804,-18.13425 -0.43971,-1.57143 -1.00087,-7.53103 -1.24702,-13.24355 -0.36009,-8.3566 -0.21275,-11.44183 0.75394,-15.78693 2.30463,-10.35884 8.47172,-20.76493 17.32155,-29.22763 5.72827,-5.47768 9.67536,-8.2764 16.42981,-11.64969 6.43229,-3.2124 9.14194,-3.92328 18.05225,-4.73603 14.69584,-1.34048 25.36551,1.0356 36.88185,8.21342 10.337,6.44277 18.19134,15.68241 24.51843,28.84283 l 3.30445,6.87329 -0.0427,14.64286 -0.0427,14.64286 -2.26856,5.73187 c -6.69277,16.91035 -21.20192,30.71165 -38.28573,36.41805 -4.91215,1.6408 -7.12365,1.9239 -17.14286,2.1946 -8.91761,0.2409 -12.38614,0.064 -15.4317,-0.7861 z"
       id="path4422"
       inkscape:connector-curvature="0" />
    <path
       style="opacity:1;fill:none;stroke:#a93b00;stroke-width:3;stroke-linecap:butt;stroke-linejoin:miter;stroke-miterlimit:4;stroke-dasharray:none;stroke-dashoffset:0;stroke-opacity:1"
       d="m 559.05951,1021.7345 c -4.83271,-1.2254 -14.69777,-6.3922 -19.74444,-10.3409 -8.51027,-6.6588 -17.07464,-18.57175 -19.78037,-27.51421 -0.76578,-2.53094 -1.33175,-7.78491 -1.59086,-14.76824 -0.38161,-10.28493 -0.30679,-11.14396 1.462,-16.78571 5.42593,-17.30664 22.12748,-33.74964 38.64565,-38.04738 13.63608,-3.54787 30.13522,-1.39263 41.67298,5.44363 9.05954,5.36788 18.41712,16.32792 24.72689,28.9613 l 2.57754,5.16074 0,13.91132 0,13.91132 -3.22201,6.75764 c -7.2136,15.12939 -19.64843,26.44469 -35.16823,32.00219 -3.34095,1.1963 -6.24768,1.5183 -15.53833,1.7212 -6.28572,0.1373 -12.60408,-0.048 -14.04082,-0.4129 z"
       id="path4426"
       inkscape:connector-curvature="0" />
    <path
       style="opacity:1;fill:none;stroke:#a93b00;stroke-width:3;stroke-linecap:butt;stroke-linejoin:miter;stroke-miterlimit:4;stroke-dasharray:none;stroke-dashoffset:0;stroke-opacity:1"
       d="m 557.97628,1019.3317 c -4.24135,-1.3995 -13.59503,-6.5557 -17.37595,-9.5785 -6.66952,-5.3321 -13.55805,-14.0606 -17.14367,-21.7229 -2.6761,-5.71869 -3.82871,-14.18747 -3.42864,-25.1919 0.31397,-8.63616 1.65065,-12.9903 6.3871,-20.8054 8.00305,-13.20498 21.76924,-23.71582 34.54235,-26.37399 12.85951,-2.67614 28.42545,-0.0214 38.92857,6.63911 7.74065,4.90872 17.61198,16.77383 23.13485,27.80752 1.82009,3.63623 1.86515,4.06377 1.86515,17.69641 l 0,13.97015 -2.59694,5.16073 c -7.58024,15.06377 -18.75354,25.60557 -32.76896,30.91707 -4.4953,1.7036 -6.16229,1.92 -16.77695,2.1785 -8.74312,0.2129 -12.55534,0.033 -14.76691,-0.6968 z"
       id="path4428"
       inkscape:connector-curvature="0" />
    <path
       style="opacity:1;fill:none;stroke:#a93b00;stroke-width:3;stroke-linecap:butt;stroke-linejoin:miter;stroke-miterlimit:4;stroke-dasharray:none;stroke-dashoffset:0;stroke-opacity:1"
       d="m 559.08164,1015.3731 c -8.05978,-2.6148 -18.9292,-10.6617 -25.16288,-18.62864 -8.01225,-10.23999 -10.14172,-17.61754 -9.61881,-33.32435 0.2833,-8.50985 0.35407,-8.82921 3.24749,-14.65578 3.59515,-7.23966 9.91397,-14.89366 16.64079,-20.15704 9.91023,-7.75421 17.3735,-10.12326 29.98353,-9.51757 12.92269,0.6207 20.29299,3.54532 29.08169,11.53997 5.24354,4.76979 12.28374,13.89322 15.2401,19.74974 l 2.10678,4.17351 -0.0314,13.05608 c -0.0358,14.90909 -0.21658,15.68522 -5.45362,23.41323 -8.00083,11.80635 -16.04321,18.60185 -27.06745,22.87085 -3.65774,1.4163 -5.78712,1.6698 -15.66186,1.8639 -6.28572,0.1236 -12.2727,-0.049 -13.30441,-0.3839 l 10e-6,0 z"
       id="path4432"
       inkscape:connector-curvature="0" />
    <path
       style="opacity:1;fill:none;stroke:#a93b00;stroke-width:3;stroke-linecap:butt;stroke-linejoin:miter;stroke-miterlimit:4;stroke-dasharray:none;stroke-dashoffset:0;stroke-opacity:1"
       d="m 555.24319,1011.478 c -10.60237,-5.3743 -21.33687,-16.05066 -25.68299,-25.54384 -2.63687,-5.75967 -3.4119,-11.14051 -3.12285,-21.68119 l 0.25508,-9.30215 3.02216,-5.73368 c 3.94535,-7.48517 9.58466,-14.19901 16.04043,-19.09679 10.04939,-7.62417 15.96242,-9.47713 28.41674,-8.90493 12.33338,0.56665 19.06924,3.24813 27.94621,11.12514 3.78191,3.35589 10.06609,11.36054 13.79224,17.56824 l 2.54726,4.24369 -0.004,12.54202 c -0.002,6.89811 -0.33669,13.73999 -0.74333,15.20417 -0.9106,3.27878 -6.48285,11.67108 -11.37115,17.12596 -4.2847,4.78136 -12.52222,10.49406 -18.37892,12.74586 -3.50682,1.3484 -5.96005,1.6438 -15.93089,1.9179 l -11.78571,0.3241 -5,-2.5345 z"
       id="path4434"
       inkscape:connector-curvature="0" />
    <path
       style="opacity:1;fill:none;stroke:#a93b00;stroke-width:3;stroke-linecap:butt;stroke-linejoin:miter;stroke-miterlimit:4;stroke-dasharray:none;stroke-dashoffset:0;stroke-opacity:1"
       d="m 553.59779,1008.1622 c -10.54092,-6.5561 -19.48709,-16.26069 -23.05738,-25.01201 -1.35714,-3.32655 -1.64523,-5.6346 -1.9204,-15.38549 -0.32155,-11.39448 -0.31048,-11.49804 1.64146,-15.35715 4.63772,-9.16905 10.9895,-16.57633 19.29872,-22.50567 6.44204,-4.59694 10.80444,-6.12677 18.72186,-6.56548 19.82338,-1.09842 31.4392,5.62486 44.74773,25.90013 l 3.28196,5 -0.0143,12.85715 c -0.016,14.43695 -0.17328,15.07169 -5.78734,23.35695 -4.09165,6.03847 -9.40866,11.25057 -15.35442,15.05157 -8.29063,5.3 -9.82588,5.6949 -23.48398,6.0411 l -12.14286,0.3078 -5.93111,-3.6889 4e-5,0 z"
       id="path4436"
       inkscape:connector-curvature="0" />
    <path
       style="opacity:1;fill:none;stroke:#a93b00;stroke-width:3;stroke-linecap:butt;stroke-linejoin:miter;stroke-miterlimit:4;stroke-dasharray:none;stroke-dashoffset:0;stroke-opacity:1"
       d="m 553.81912,1003.3566 c -7.90544,-5.60579 -14.61174,-12.68512 -17.93219,-18.92969 l -2.75991,-5.19038 -0.26534,-11.60795 -0.26535,-11.60796 3.43929,-5.51811 c 4.81761,-7.72953 13.56834,-16.27377 20.26313,-19.78497 4.96329,-2.60309 5.84788,-2.82329 12.5,-3.11161 8.95625,-0.38818 14.3467,0.58204 20.73015,3.73119 5.84207,2.88207 12.37052,9.1674 18.56336,17.87206 l 4.04591,5.68693 -0.23321,12.8845 c -0.23124,12.77588 -0.25127,12.91739 -2.37606,16.78636 -2.81974,5.13437 -13.13871,15.53803 -18.71791,18.87153 -5.4334,3.2464 -9.64874,4.0102 -21.99638,3.9855 l -9.28571,-0.019 -5.70978,-4.0488 0,0 z"
       id="path4442"
       inkscape:connector-curvature="0" />
    <path
       style="opacity:1;fill:none;stroke:#a93b00;stroke-width:3;stroke-linecap:butt;stroke-linejoin:miter;stroke-miterlimit:4;stroke-dasharray:none;stroke-dashoffset:0;stroke-opacity:1"
       d="m 554.37913,1001.3423 c -6.94231,-5.36657 -14.42631,-13.51377 -17.20825,-18.73322 l -2.28484,-4.2868 0,-11.17306 0,-11.17306 3.16686,-4.79838 c 3.42837,-5.19463 11.90811,-13.99551 16.44056,-17.06318 5.08892,-3.44431 9.06428,-4.52169 16.65024,-4.51245 14.7415,0.018 23.29421,4.82325 34.15215,19.18817 l 4.65651,6.1605 -0.21173,12.87607 -0.21173,12.87606 -2.34015,3.64421 c -3.61557,5.63037 -15.18137,16.43114 -19.99797,18.67514 -3.83649,1.7874 -4.82218,1.918 -15.87617,2.1033 l -11.78571,0.1975 -5.14977,-3.9808 z"
       id="path4444"
       inkscape:connector-curvature="0" />
    <path
       style="opacity:1;fill:none;stroke:#a93b00;stroke-width:3;stroke-linecap:butt;stroke-linejoin:miter;stroke-miterlimit:4;stroke-dasharray:none;stroke-dashoffset:0;stroke-opacity:1"
       d="m 553.7872,995.43799 c -5.75818,-5.02333 -9.83174,-9.67413 -13.38654,-15.28347 -1.02252,-1.61349 -1.2289,-3.7511 -1.2289,-12.72844 l 0,-10.7893 2.18514,-3.17599 c 3.12896,-4.5478 13.86532,-15.01282 17.73739,-17.28911 3.12797,-1.83887 3.75375,-1.93437 12.57747,-1.91961 8.08189,0.0135 9.74041,0.22323 12.79306,1.61762 5.44535,2.48733 10.06323,6.3719 15.83459,13.3201 l 5.30092,6.38182 0,12.2292 0,12.22919 -3.92282,4.75582 c -5.80512,7.03781 -14.14306,13.8881 -18.46713,15.1722 -2.40784,0.71508 -6.77248,1.06428 -13.30283,1.06428 l -9.7192,0 -6.40115,-5.58431 z"
       id="path4448"
       inkscape:connector-curvature="0" />
    <path
       style="opacity:1;fill:none;stroke:#a93b00;stroke-width:3;stroke-linecap:butt;stroke-linejoin:miter;stroke-miterlimit:4;stroke-dasharray:none;stroke-dashoffset:0;stroke-opacity:1"
       d="m 555.76618,994.4151 c -5.51197,-4.86734 -9.57116,-9.3135 -12.54162,-13.73723 -1.8538,-2.76077 -1.90995,-3.15163 -1.90995,-13.29653 0,-9.59406 0.12654,-10.62132 1.54127,-12.51276 2.78093,-3.718 13.03409,-13.9144 16.31588,-16.22556 3.21064,-2.26106 3.22481,-2.26363 12.5,-2.26363 8.33554,0 9.63892,0.17389 12.73748,1.69938 3.94174,1.9406 10.54116,7.81196 15.59376,13.87342 l 3.45447,4.14422 0,11.73029 0,11.7303 -4.22385,4.90761 c -4.99096,5.79889 -12.67177,12.09555 -16.36202,13.41341 -1.66035,0.59295 -6.20493,0.95021 -12.33915,0.97002 l -9.71073,0.0313 -5.05554,-4.46429 z"
       id="path4450"
       inkscape:connector-curvature="0" />
    <path
       style="opacity:1;fill:none;stroke:#a93b00;stroke-width:3;stroke-linecap:butt;stroke-linejoin:miter;stroke-miterlimit:4;stroke-dasharray:none;stroke-dashoffset:0;stroke-opacity:1"
       d="m 555.4703,988.34368 c -9.84673,-9.9717 -9.86997,-10.02208 -9.86997,-21.39121 l 0,-9.58471 7.37601,-7.37601 c 9.67527,-9.67527 10.21961,-9.93859 19.71975,-9.53908 9.53965,0.40116 11.05721,1.11735 19.70038,9.29722 l 6.77529,6.41212 0,11.3639 0,11.3639 -5.79498,5.74071 c -3.18723,3.15739 -7.44616,6.68774 -9.46428,7.84523 -3.54445,2.0329 -3.98582,2.10475 -12.96992,2.11122 l -9.30061,0.007 -6.17167,-6.25 z"
       id="path4454"
       inkscape:connector-curvature="0" />
  </g>
</svg>
